<svg xmlns="http://www.w3.org/2000/svg" width="1560" height="804" xmlns:v="https://vecta.io/nano"><path fill="none" stroke="#fff" paint-order="fill stroke markers" d="M20 485.345l1 4.076 1 4.062 1 4.048 1 4.034 1 4.019 1 4.003 1 3.987 1 3.97 1 3.952 1 3.934 1 3.915 1 3.896 1 3.876 1 3.855 1 3.834 1 3.812 1 3.79 1 3.767 1 3.743 1 3.719 1 3.694 1 3.669 1 3.644 1 3.617 1 3.59 1 3.563 1 3.535 1 3.506 1 3.477 1 3.448 1 3.418 1 3.387 1 3.356 1 3.324 1 3.292 1 3.26 1 3.227 1 3.193 1 3.159 1 3.124 1 3.089 1 3.054 1 3.018 1 2.981 1 2.944 1 2.907 1 2.869 1 2.831 1 2.792 1 2.753 1 2.713 1 2.673 1 2.633 1 2.592 1 2.551 1 2.51 1 2.468 1 2.425 1 2.383 1 2.34 1 2.296 1 2.253 1 2.209 1 2.164 1 2.119 1 2.074 1 2.029 1 1.983 1 1.937 1 1.891 1 1.844 1 1.798 1 1.75 1 1.703 1 1.655 1 1.607 1 1.559 1 1.511 1 1.462 1 1.413 1 1.364 1 1.315 1 1.266 1 1.216 1 1.166 1 1.116 1 1.066 1 1.016 1 .965 1 .914 1 .864 1 .813 1 .762 1 .71 1 .659 1 .608 1 .556 1 .505 1 .453 1 .401 1 .35 1 .298 1 .246 1 .194 1 .142 1 .09 1 .038 1-.014 1-.066 1-.118 1-.17 1-.222 1-.273 1-.325 1-.377 1-.429 1-.481 1-.532 1-.584 1-.635 1-.686 1-.738 1-.789 1-.84 1-.891 1-.941 1-.992 1-1.042 1-1.093 1-1.143 1-1.193 1-1.242 1-1.292 1-1.341 1-1.39 1-1.439 1-1.488 1-1.537 1-1.585 1-1.633 1-1.681 1-1.728 1-1.776 1-1.823 1-1.869 1-1.916 1-1.962 1-2.008 1-2.053 1-2.098 1-2.143 1-2.188 1-2.232 1-2.276 1-2.319 1-2.363 1-2.406 1-2.448 1-2.49 1-2.532 1-2.573 1-2.614 1-2.655 1-2.695 1-2.734 1-2.774 1-2.813 1-2.851 1-2.889 1-2.927 1-2.964 1-3.001 1-3.037 1-3.073 1-3.108 1-3.143 1-3.177 1-3.211 1-3.244 1-3.277 1-3.309 1-3.341 1-3.373 1-3.404 1-3.434 1-3.464 1-3.493 1-3.522 1-3.55 1-3.578 1-3.605 1-3.631 1-3.657 1-3.683 1-3.708 1-3.732 1-3.756 1-3.779 1-3.802 1-3.824 1-3.845 1-3.866 1-3.886 1-3.906 1-3.925 1-3.943 1-3.961 1-3.979 1-3.995 1-4.011 1-4.027 1-4.042 1-4.056 1-4.07 1-4.083 1-4.095 1-4.107 1-4.118 1-4.128 1-4.138 1-4.147 1-4.156 1-4.164 1-4.171 1-4.178 1-4.184 1-4.189 1-4.194 1-4.198 1-4.202 1-4.205 1-4.207 1-4.209 1-4.21 1-4.21 1-4.21 1-4.209 1-4.207 1-4.205 1-4.202 1-4.198 1-4.194 1-4.189 1-4.184 1-4.178 1-4.171 1-4.163 1-4.155 1-4.147 1-4.138 1-4.128 1-4.117 1-4.106 1-4.094 1-4.082 1-4.069 1-4.055 1-4.041 1-4.026 1-4.01 1-3.994 1-3.978 1-3.96 1-3.942 1-3.924 1-3.905 1-3.885 1-3.865 1-3.844 1-3.822 1-3.8 1-3.778 1-3.754 1-3.73 1-3.706 1-3.681 1-3.656 1-3.63 1-3.603 1-3.576 1-3.548 1-3.52 1-3.491 1-3.462 1-3.432 1-3.402 1-3.371 1-3.339 1-3.307 1-3.275 1-3.242 1-3.209 1-3.175 1-3.141 1-3.106 1-3.07 1-3.035 1-2.998 1-2.962 1-2.924 1-2.887 1-2.849 1-2.81 1-2.771 1-2.732 1-2.692 1-2.652 1-2.612 1-2.571 1-2.529 1-2.487 1-2.445 1-2.403 1-2.36 1-2.317 1-2.273 1-2.229 1-2.185 1-2.14 1-2.096 1-2.05 1-2.005 1-1.959 1-1.913 1-1.866 1-1.82 1-1.773 1-1.725 1-1.678 1-1.63 1-1.582 1-1.534 1-1.485 1-1.436 1-1.387 1-1.338 1-1.289 1-1.239 1-1.19 1-1.14 1-1.089 1-1.039 1-.989 1-.938 1-.887 1-.837 1-.786 1-.734 1-.683 1-.632 1-.58 1-.529 1-.477 1-.426 1-.374 1-.322 1-.27 1-.218 1-.166 1-.115 1-.063 1-.011 1 .041 1 .093 1 .145 1 .197 1 .249 1 .301 1 .353 1 .405 1 .456 1 .508 1 .559 1 .611 1 .662 1 .714 1 .765 1 .816 1 .867 1 .918 1 .968 1 1.019 1 1.069 1 1.119 1 1.169 1 1.219 1 1.269 1 1.318 1 1.367 1 1.416 1 1.465 1 1.514 1 1.562 1 1.61 1 1.658 1 1.706 1 1.753 1 1.8 1 1.847 1 1.894 1 1.94 1 1.986 1 2.032 1 2.077 1 2.122 1 2.167 1 2.211 1 2.255 1 2.299 1 2.342 1 2.385 1 2.428 1 2.47 1 2.512 1 2.554 1 2.595 1 2.636 1 2.676 1 2.716 1 2.755 1 2.794 1 2.833 1 2.871 1 2.909 1 2.946 1 2.983 1 3.02 1 3.056 1 3.091 1 3.126 1 3.161 1 3.195 1 3.229 1 3.262 1 3.294 1 3.326 1 3.358 1 3.389 1 3.42 1 3.45 1 3.479 1 3.508 1 3.537 1 3.565 1 3.592 1 3.619 1 3.645 1 3.671 1 3.696 1 3.721 1 3.745 1 3.768 1 3.791 1 3.813 1 3.835 1 3.856 1 3.877 1 3.897 1 3.916 1 3.935 1 3.953 1 3.971 1 3.988 1 4.004 1 4.02 1 4.035 1 4.049 1 4.063 1 4.077 1 4.089 1 4.101 1 4.113 1 4.123 1 4.134 1 4.143 1 4.152 1 4.16 1 4.168 1 4.175 1 4.181 1 4.187 1 4.192 1 4.197 1 4.2 1 4.204 1 4.206 1 4.208 1 4.209 1 4.21 1 4.21 1 4.209 1 4.208 1 4.206 1 4.203 1 4.2 1 4.196 1 4.192 1 4.186 1 4.181 1 4.174 1 4.167 1 4.159 1 4.151 1 4.142 1 4.132 1 4.122 1 4.111 1 4.1 1 4.088 1 4.075 1 4.062 1 4.048 1 4.033 1 4.018 1 4.002 1 3.986 1 3.968 1 3.951 1 3.933 1 3.914 1 3.894 1 3.874 1 3.854 1 3.832 1 3.811 1 3.788 1 3.765 1 3.742 1 3.718 1 3.693 1 3.668 1 3.642 1 3.616 1 3.589 1 3.561 1 3.533 1 3.505 1 3.476 1 3.446 1 3.416 1 3.385 1 3.354 1 3.322 1 3.29 1 3.258 1 3.224 1 3.191 1 3.157 1 3.122 1 3.087 1 3.051 1 3.015 1 2.979 1 2.942 1 2.904 1 2.867 1 2.828 1 2.79 1 2.751 1 2.711 1 2.671 1 2.631 1 2.59 1 2.549 1 2.507 1 2.465 1 2.423 1 2.38 1 2.337 1 2.294 1 2.25 1 2.206 1 2.161 1 2.117 1 2.072 1 2.026 1 1.98 1 1.934 1 1.888 1 1.842 1 1.795 1 1.748 1 1.7 1 1.652 1 1.605 1 1.556 1 1.508 1 1.459 1 1.41 1 1.361 1 1.312 1 1.263 1 1.213 1 1.163 1 1.113 1 1.063 1 1.012 1 .962 1 .911 1 .86 1 .809 1 .758 1 .707 1 .656 1 .605 1 .553 1 .502 1 .45 1 .398 1 .346 1 .295 1 .243 1 .191 1 .139 1 .087 1 .035 1-.017 1-.069 1-.121 1-.173 1-.225 1-.277 1-.329 1-.38 1-.432 1-.484 1-.535 1-.587 1-.638 1-.69 1-.741 1-.792 1-.843 1-.894 1-.944 1-.995 1-1.045 1-1.096 1-1.146 1-1.196 1-1.245 1-1.295 1-1.344 1-1.394 1-1.442 1-1.491 1-1.54 1-1.588 1-1.636 1-1.684 1-1.731 1-1.778 1-1.825 1-1.872 1-1.919 1-1.965 1-2.01 1-2.056 1-2.101 1-2.146 1-2.191 1-2.235 1-2.279 1-2.322 1-2.365 1-2.408 1-2.451 1-2.493 1-2.534 1-2.576 1-2.617 1-2.657 1-2.697 1-2.737 1-2.776 1-2.815 1-2.853 1-2.891 1-2.929 1-2.966 1-3.003 1-3.039 1-3.075 1-3.11 1-3.145 1-3.179 1-3.213 1-3.246 1-3.279 1-3.311 1-3.343 1-3.375 1-3.405 1-3.436 1-3.466 1-3.495 1-3.523 1-3.552 1-3.579 1-3.606 1-3.633 1-3.659 1-3.684 1-3.709 1-3.733 1-3.757 1-3.78 1-3.803 1-3.825 1-3.846 1-3.867 1-3.887 1-3.907 1-3.926 1-3.945 1-3.962 1-3.98 1-3.996 1-4.012 1-4.028 1-4.043 1-4.057 1-4.07 1-4.083 1-4.096 1-4.107 1-4.118 1-4.129 1-4.139 1-4.148 1-4.157 1-4.164 1-4.172 1-4.178 1-4.184 1-4.19 1-4.195 1-4.199 1-4.202 1-4.205 1-4.207 1-4.209 1-4.21 1-4.21 1-4.209 1-4.208 1-4.207 1-4.204 1-4.202 1-4.198 1-4.194 1-4.189 1-4.183 1-4.177 1-4.17 1-4.163 1-4.155 1-4.146 1-4.137 1-4.127 1-4.116 1-4.105 1-4.093 1-4.081 1-4.068 1-4.054 1-4.04 1-4.025 1-4.009 1-3.993 1-3.977 1-3.959 1-3.941 1-3.923 1-3.903 1-3.884 1-3.863 1-3.842 1-3.821 1-3.799 1-3.776 1-3.753 1-3.729 1-3.705 1-3.68 1-3.654 1-3.628 1-3.601 1-3.574 1-3.546 1-3.518 1-3.489 1-3.46 1-3.43 1-3.4 1-3.369 1-3.337 1-3.305 1-3.273 1-3.24 1-3.207 1-3.173 1-3.138 1-3.103 1-3.068 1-3.032 1-2.996 1-2.959 1-2.922 1-2.884 1-2.846 1-2.808 1-2.769 1-2.73 1-2.69 1-2.65 1-2.609 1-2.568 1-2.527 1-2.485 1-2.443 1-2.4 1-2.357 1-2.314 1-2.271 1-2.227 1-2.182 1-2.138 1-2.093 1-2.048 1-2.002 1-1.956 1-1.91 1-1.863 1-1.817 1-1.77 1-1.722 1-1.675 1-1.627 1-1.579 1-1.531 1-1.482 1-1.433 1-1.384 1-1.335 1-1.286 1-1.236 1-1.186 1-1.136 1-1.086 1-1.036 1-.986 1-.935 1-.884 1-.833 1-.782 1-.731 1-.68 1-.629 1-.577 1-.526 1-.474 1-.422 1-.371 1-.319 1-.267 1-.215 1-.163 1-.111 1-.059 1-.007 1 .045 1 .097 1 .149 1 .2 1 .252 1 .304 1 .356 1 .408 1 .459 1 .511 1 .563 1 .614 1 .665 1 .717 1 .768 1 .819 1 .87 1 .921 1 .971 1 1.022 1 1.072 1 1.122 1 1.172 1 1.222 1 1.272 1 1.321 1 1.37 1 1.42 1 1.468 1 1.517 1 1.565 1 1.613 1 1.661 1 1.709 1 1.756 1 1.803 1 1.85 1 1.897 1 1.943 1 1.989 1 2.035 1 2.08 1 2.125 1 2.17 1 2.214 1 2.258 1 2.302 1 2.345 1 2.388 1 2.431 1 2.473 1 2.515 1 2.556 1 2.597 1 2.638 1 2.678 1 2.718 1 2.758 1 2.797 1 2.836 1 2.874 1 2.911 1 2.949 1 2.986 1 3.022 1 3.058 1 3.094 1 3.129 1 3.163 1 3.197 1 3.231 1 3.264 1 3.296 1 3.328 1 3.36 1 3.391 1 3.422 1 3.452 1 3.481 1 3.51 1 3.538 1 3.566 1 3.594 1 3.621 1 3.647 1 3.672 1 3.698 1 3.722 1 3.746 1 3.77 1 3.792 1 3.815 1 3.836 1 3.857 1 3.878 1 3.898 1 3.917 1 3.936 1 3.954 1 3.972 1 3.989 1 4.005 1 4.021 1 4.036 1 4.05 1 4.064 1 4.077 1 4.09 1 4.102 1 4.113 1 4.124 1 4.134 1 4.144 1 4.153 1 4.161 1 4.168 1 4.175 1 4.182 1 4.187 1 4.192 1 4.197 1 4.201 1 4.204 1 4.206 1 4.208 1 4.209 1 4.21 1 4.21 1 4.209 1 4.208 1 4.206 1 4.203 1 4.2 1 4.196 1 4.191 1 4.186 1 4.18 1 4.174 1 4.167 1 4.159 1 4.15 1 4.141 1 4.132 1 4.121 1 4.111 1 4.099 1 4.087 1 4.074 1 4.061 1 4.047 1 4.032 1 4.017 1 4.001 1 3.984 1 3.967 1 3.95 1 3.931 1 3.913 1 3.893 1 3.873 1 3.852 1 3.831 1 3.809 1 3.787 1 3.764 1 3.74 1 3.716 1 3.691 1 3.666 1 3.64 1 3.614 1 3.587 1 3.56 1 3.531 1 3.503 1 3.474 1 3.444 1 3.414 1 3.383 1 3.352 1 3.321 1 3.288 1 3.256 1 3.222 1 3.189 1 3.155 1 3.12 1 3.085 1 3.049 1 3.013 1 2.977 1 2.94 1 2.902 1 2.864 1 2.826 1 2.787 1 2.748 1 2.709 1 2.669 1 2.628 1 2.587 1 2.546 1 2.505 1 2.463 1 2.42 1 2.378 1 2.334 1 2.291 1 2.247 1 2.203 1 2.159 1 2.114 1 2.069 1 2.023 1 1.978 1 1.932 1 1.885 1 1.839 1 1.792 1 1.745 1 1.697 1 1.649 1 1.602 1 1.553 1 1.505 1 1.456 1 1.407 1 1.358 1 1.309 1 1.26 1 1.21 1 1.16 1 1.11 1 1.06 1 1.009 1 .959 1 .908 1 .857 1 .806 1 .755 1 .704 1 .653 1 .601 1 .55 1 .498 1 .447 1 .395 1 .343 1 .291 1 .239 1 .188 1 .136 1 .084 1 .032 1-.02 1-.072 1-.124 1-.176 1-.228 1-.28 1-.332 1-.384 1-.435 1-.487 1-.538 1-.59 1-.641 1-.693 1-.744 1-.795 1-.846 1-.897 1-.948 1-.998 1-1.049 1-1.099 1-1.149 1-1.199 1-1.249 1-1.298 1-1.347 1-1.397 1-1.445 1-1.494 1-1.543 1-1.591 1-1.639 1-1.687 1-1.734 1-1.781 1-1.828 1-1.875 1-1.921 1-1.967 1-2.013 1-2.059 1-2.104 1-2.149 1-2.193 1-2.238 1-2.281 1-2.325 1-2.368 1-2.411 1-2.453 1-2.495 1-2.537 1-2.578 1-2.619 1-2.66 1-2.7 1-2.739 1-2.779 1-2.817 1-2.856 1-2.894 1-2.931 1-2.968 1-3.005 1-3.041 1-3.077 1-3.112 1-3.147 1-3.181 1-3.215 1-3.248 1-3.281 1-3.313 1-3.345 1-3.377 1-3.407 1-3.438 1-3.467 1-3.497 1-3.525 1-3.553 1-3.581 1-3.608 1-3.635 1-3.66 1-3.686 1-3.711 1-3.735 1-3.759 1-3.782 1-3.804 1-3.826 1-3.848 1-3.868 1-3.889 1-3.908 1-3.927 1-3.946 1-3.964 1-3.981 1-3.997 1-4.013 1-4.029 1-4.044 1-4.058 1-4.071 1-4.084 1-4.096 1-4.108 1-4.119 1-4.13 1-4.139 1-4.149 1-4.157 1-4.165 1-4.172 1-4.179 1-4.185 1-4.19 1-4.195 1-4.199 1-4.202 1-4.205 1-4.207 1-4.209 1-4.21 1-4.21 1-4.209 1-4.208 1-4.207 1-4.204 1-4.201 1-4.198 1-4.193 1-4.189 1-4.183 1-4.177 1-4.17 1-4.163 1-4.154 1-4.146 1-4.136 1-4.126 1-4.116 1-4.105 1-4.093 1-4.08 1-4.067 1-4.053 1-4.039 1-4.024 1-4.008 1-3.992 1-3.975 1-3.958 1-3.94 1-3.921 1-3.902 1-3.882 1-3.862 1-3.841 1-3.82 1-3.797 1-3.775 1-3.751 1-3.727 1-3.703 1-3.678 1-3.652 1-3.626 1-3.6 1-3.572 1-3.545 1-3.516 1-3.488 1-3.458 1-3.428 1-3.398 1-3.367 1-3.335 1-3.303 1-3.271 1-3.238 1-3.205 1-3.171 1-3.136 1-3.101 1-3.066 1-3.03 1-2.994 1-2.957 1-2.92 1-2.882 1-2.844 1-2.805 1-2.767 1-2.727 1-2.687 1-2.647 1-2.606 1-2.565 1-2.524 1-2.482 1-2.44 1-2.398 1-2.355 1-2.311 1-2.268 1-2.224 1-2.18 1-2.135 1-2.09 1-2.045 1-1.999 1-1.953 1-1.907 1-1.861 1-1.814 1-1.767 1-1.719 1-1.672 1-1.624 1-1.576 1-1.528 1-1.479 1-1.43 1-1.381 1-1.332 1-1.283 1-1.233 1-1.183 1-1.133 1-1.083 1-1.033 1-.982 1-.932 1-.881 1-.83 1-.779 1-.728 1-.677 1-.625 1-.574 1-.523 1-.471 1-.419 1-.367 1-.316 1-.264 1-.212 1-.16 1-.108 1-.056 1-.004 1 .048 1 .1 1 .152 1 .204 1 .256 1 .307 1 .359 1 .411 1 .463 1 .514 1 .566 1 .617 1 .669 1 .72 1 .771 1 .822 1 .873 1 .924 1 .974 1 1.025 1 1.075 1 1.125 1 1.175 1 1.225 1 1.275 1 1.324 1 1.374 1 1.423 1 1.471 1 1.52 1 1.568 1 1.616 1 1.664 1 1.712 1 1.759 1 1.806 1 1.853 1 1.9 1 1.946 1 1.992 1 2.037 1 2.083 1 2.128 1 2.172 1 2.217 1 2.261 1 2.305 1 2.348 1 2.391 1 2.433 1 2.476 1 2.517 1 2.559 1 2.6 1 2.641 1 2.681 1 2.721 1 2.76 1 2.799 1 2.838 1 2.876 1 2.914 1 2.951 1 2.988 1 3.024 1 3.06 1 3.096 1 3.131 1 3.165 1 3.199 1 3.233 1 3.266 1 3.298 1 3.33 1 3.362 1 3.393 1 3.423 1 3.453 1 3.483 1 3.512 1 3.54 1 3.568 1 3.595 1 3.622 1 3.648 1 3.674 1 3.699 1 3.724 1 3.748 1 3.771 1 3.794 1 3.816 1 3.838 1 3.859 1 3.879 1 3.899 1 3.918 1 3.937 1 3.955 1 3.973 1 3.99 1 4.006 1 4.022 1 4.037 1 4.051 1 4.065 1 4.078 1 4.091 1 4.103 1 4.114 1 4.125 1 4.135 1 4.144 1 4.153 1 4.161 1 4.169 1 4.176 1 4.182 1 4.188 1 4.193 1 4.197 1 4.201 1 4.204 1 4.206 1 4.208 1 4.209 1 4.21 1 4.21 1 4.209 1 4.208 1 4.205 1 4.203 1 4.199 1 4.196 1 4.191 1 4.186 1 4.18 1 4.173 1 4.166" stroke-linecap="round" stroke-linejoin="round" stroke-miterlimit="10" stroke-width="40"/></svg>